<?xml version="1.0" encoding="iso-8859-1"?>
<!-- Generator: Adobe Illustrator 19.0.0, SVG Export Plug-In . SVG Version: 6.00 Build 0)  -->
<svg version="1.1" id="Capa_1" xmlns="http://www.w3.org/2000/svg" xmlns:xlink="http://www.w3.org/1999/xlink" x="0px" y="0px"
	 viewBox="0 0 465 465" style="enable-background:new 0 0 465 465;" xml:space="preserve">
<g>
	<path style="fill:#0C80E4;" d="M312.877,187.84c-0.569,2.945-1.138,5.67-1.706,8.13c-1.899,8.23-4.979,15.988-9.044,23.07h119.689
		l-18.928-31.2H312.877z"/>
	<path style="fill:#FECC33;" d="M294.492,265.23h78.351c1.429-2.226,2.93-4.418,4.528-6.558c7.137-9.554,15.827-17.873,25.56-24.632
		H294.492V265.23z"/>
	<path style="fill:#FECC33;" d="M374.867,141.65h-54.964c-1.414,11.024-2.9,21.686-4.414,31.19h78.299L374.867,141.65z"/>
	<path style="fill:#0C80E4;" d="M328.39,65.038c-1.575,16.142-3.911,38.891-6.63,61.612h44.007L328.39,65.038z"/>
	<path style="fill:#0C80E4;" d="M294.492,311.42h61.751c1.284-10.822,4.168-21.295,8.537-31.19h-70.288V311.42z"/>
	<path style="fill:#FECC33;" d="M294.492,357.61h22.498c4.143,0,7.5,3.358,7.5,7.5v0h15v0c0-4.142,3.357-7.5,7.5-7.5h8.474v-31.19
		h-60.972V357.61z"/>
	<path style="fill:#0C80E4;" d="M316.99,372.61h-22.498v31.2h57.244c2.412-6.989,3.728-14.484,3.728-22.282v-8.918h-8.474
		c-4.143,0-7.5-3.358-7.5-7.5h-15C324.49,369.252,321.133,372.61,316.99,372.61z"/>
	<path style="fill:#FECC33;" d="M294.492,449.592c20.878-2.285,38.951-14.005,49.888-30.782h-49.888V449.592z"/>
	<path style="fill:#FECC33;" d="M139.67,226.54h-15c0,4.142-3.358,7.5-7.5,7.5H62.069c9.733,6.759,18.423,15.078,25.559,24.632
		c1.598,2.14,3.099,4.331,4.528,6.558h78.351v-31.19H147.17C143.028,234.04,139.67,230.682,139.67,226.54z"/>
	<path style="fill:#FECC33;" d="M170.508,449.592V418.81H120.62C131.557,435.587,149.63,447.306,170.508,449.592z"/>
	<path style="fill:#0C80E4;" d="M109.536,381.528c0,7.798,1.315,15.293,3.727,22.282h57.244v-31.2h-60.972V381.528z"/>
	<rect x="109.536" y="326.42" style="fill:#FECC33;" width="60.972" height="31.19"/>
	<path style="fill:#0C80E4;" d="M108.757,311.42h61.751v-31.19H100.22C104.589,290.125,107.472,300.598,108.757,311.42z"/>
	<path style="fill:#0C80E4;" d="M147.17,219.04h15.703c-4.065-7.082-7.145-14.84-9.043-23.07c-0.567-2.46-1.137-5.185-1.706-8.13
		H62.112l-18.928,31.2h73.986c4.142,0,7.5,3.358,7.5,7.5h15C139.67,222.398,143.028,219.04,147.17,219.04z"/>
	<path style="fill:#FECC33;" d="M145.098,141.65H90.134l-18.922,31.19h78.3C147.998,163.336,146.512,152.674,145.098,141.65z"/>
	<path style="fill:#0C80E4;" d="M136.611,65.038L99.234,126.65h44.007C140.522,103.929,138.186,81.18,136.611,65.038z"/>
	<path style="fill:#FF9926;" d="M304.295,145.252l-37.526,6.428l3.761,5.792c2.255,3.475,1.267,8.119-2.207,10.375
		c-1.262,0.819-2.678,1.21-4.077,1.21c-2.455,0-4.861-1.204-6.298-3.417l-9.962-15.345c-1.373-2.116-1.591-4.781-0.579-7.092
		s3.117-3.958,5.604-4.384l53.254-9.123c0.781-6.4,1.534-12.85,2.252-19.196H156.484c0.718,6.346,1.472,12.796,2.252,19.196
		l53.253,9.123c2.487,0.426,4.592,2.073,5.604,4.384c1.012,2.311,0.794,4.976-0.58,7.091l-9.961,15.345
		c-1.436,2.213-3.842,3.417-6.297,3.417c-1.4,0-2.815-0.391-4.077-1.21c-3.475-2.255-4.462-6.9-2.207-10.374l3.76-5.792
		l-37.525-6.428c2.489,18.894,5.155,36.14,7.74,47.347c2.49,10.796,7.266,20.456,13.819,28.449c0.388,0.36,0.739,0.758,1.044,1.192
		c0.307,0.307,0.583,0.643,0.833,0.999c5.629,6.279,12.42,11.404,20.102,15.081c1.058-2.794,3.734-4.802,6.904-4.847
		c0.036,0,0.073-0.001,0.109-0.001c4.092,0,7.438,3.288,7.497,7.393l0.002,0.107h27.489l0.002-0.107
		c0.059-4.105,3.405-7.393,7.497-7.393c0.036,0,0.072,0,0.109,0.001c3.169,0.045,5.845,2.052,6.903,4.847
		c7.683-3.677,14.474-8.802,20.103-15.082c0.258-0.367,0.545-0.711,0.863-1.025c0.29-0.409,0.62-0.786,0.983-1.128
		c6.569-8,11.355-17.673,13.85-28.486C299.14,181.391,301.806,164.146,304.295,145.252z"/>
	<path style="fill:#FECC33;" d="M310.171,95.5c2.255-20.954,3.995-39.171,4.839-48.257c-8.801-2.379-27.201-6.74-51.009-9.042
		l-5.59,11.688l-3.714,24.247c-0.626,4.095-4.456,6.908-8.549,6.278c-4.094-0.627-6.905-4.455-6.277-8.549l3.882-25.346
		c0.111-0.729,0.329-1.436,0.647-2.101l9.963-20.831C253.992,16.087,250.511,15,232.5,15c-18.01,0-21.492,1.087-21.863,8.587
		l9.964,20.831c0.318,0.665,0.536,1.373,0.647,2.101l3.881,25.346c0.627,4.094-2.184,7.922-6.278,8.549
		c-0.385,0.059-0.767,0.087-1.145,0.087c-3.641,0-6.836-2.656-7.404-6.366l-3.713-24.247l-5.59-11.688
		c-23.808,2.302-42.206,6.663-51.008,9.042c0.844,9.086,2.584,27.304,4.839,48.257H310.171z"/>
	<path style="fill:#FECC33;" d="M218.87,248.97c0.001,0.041,0.002,0.082,0.002,0.123l1.71,119.62
		c2.787,1.095,7.03,2.339,11.918,2.339c4.915,0,9.143-1.237,11.919-2.329l1.71-119.668c0-0.013,0-0.025,0.001-0.038l0.115-8.046
		h-27.489L218.87,248.97z"/>
	<path d="M441.968,223.449c-0.019-0.041-0.04-0.082-0.059-0.123c-0.096-0.203-0.201-0.401-0.315-0.593
		c-0.017-0.029-0.03-0.06-0.047-0.088L329.454,37.874c-0.02-0.033-0.044-0.062-0.064-0.095c-0.086-0.138-0.178-0.271-0.273-0.403
		c-0.045-0.062-0.088-0.126-0.135-0.187c-0.121-0.158-0.249-0.31-0.383-0.458c-0.051-0.056-0.103-0.11-0.155-0.164
		c-0.124-0.129-0.251-0.255-0.384-0.375c-0.072-0.065-0.148-0.125-0.222-0.186c-0.101-0.085-0.203-0.168-0.31-0.248
		c-0.081-0.06-0.163-0.117-0.246-0.174c-0.106-0.073-0.214-0.144-0.325-0.211c-0.085-0.052-0.17-0.102-0.256-0.15
		c-0.115-0.064-0.233-0.125-0.352-0.183c-0.086-0.042-0.172-0.085-0.26-0.124c-0.124-0.055-0.252-0.104-0.38-0.153
		c-0.087-0.033-0.173-0.068-0.26-0.098c-0.024-0.008-0.046-0.018-0.069-0.026c-0.994-0.326-22.858-7.398-56.018-10.966
		c-0.396-10.372-4.823-17.399-13.19-20.881C249.467,0,241.226,0,232.5,0c-8.725,0-16.967,0-23.67,2.79
		c-8.367,3.482-12.794,10.509-13.19,20.881c-33.161,3.568-55.024,10.64-56.018,10.966c-0.022,0.007-0.043,0.017-0.065,0.024
		c-0.095,0.032-0.189,0.07-0.283,0.106c-0.12,0.046-0.239,0.092-0.355,0.143c-0.095,0.042-0.188,0.088-0.281,0.134
		c-0.111,0.055-0.222,0.111-0.33,0.172c-0.093,0.052-0.184,0.105-0.275,0.161c-0.104,0.064-0.205,0.13-0.305,0.198
		c-0.089,0.061-0.177,0.122-0.264,0.186c-0.099,0.074-0.194,0.153-0.289,0.232c-0.08,0.066-0.161,0.131-0.239,0.201
		c-0.123,0.111-0.24,0.229-0.356,0.348c-0.067,0.069-0.133,0.138-0.197,0.209c-0.127,0.141-0.249,0.286-0.365,0.436
		c-0.047,0.062-0.091,0.127-0.137,0.19c-0.095,0.131-0.186,0.264-0.272,0.401c-0.02,0.033-0.044,0.062-0.064,0.095L23.453,222.645
		c-0.018,0.029-0.03,0.061-0.048,0.09c-0.113,0.191-0.217,0.387-0.313,0.589c-0.02,0.042-0.042,0.084-0.061,0.127
		c-0.427,0.943-0.672,1.987-0.672,3.09c0,0.048,0.006,0.094,0.007,0.141c0,0.023,0.003,0.045,0.003,0.068
		c0.007,0.259,0.027,0.515,0.06,0.767c0.003,0.025,0.008,0.049,0.011,0.074c0.036,0.26,0.086,0.515,0.148,0.765
		c0.004,0.017,0.009,0.034,0.013,0.051c0.069,0.27,0.152,0.534,0.25,0.792c0,0.001,0,0.002,0.001,0.002c0,0,0,0.001,0,0.001
		c0.408,1.073,1.052,2.025,1.872,2.797c0.008,0.007,0.016,0.014,0.024,0.022c0.194,0.181,0.398,0.352,0.611,0.511
		c0.014,0.011,0.028,0.021,0.042,0.032c0.701,0.519,1.491,0.921,2.349,1.172c39.325,12.163,66.783,49.516,66.783,90.877v56.917
		c0,11.442,2.318,22.353,6.503,32.291c0.137,0.385,0.298,0.758,0.493,1.111c12.91,29.443,42.322,50.07,76.475,50.07
		c4.142,0,7.5-3.358,7.5-7.5v-46.151c0-0.013,0.002-0.026,0.002-0.039s-0.002-0.026-0.002-0.039v-46.123
		c0-0.013,0.002-0.026,0.002-0.039s-0.002-0.026-0.002-0.039v-46.113c0-0.013,0.002-0.026,0.002-0.039s-0.002-0.026-0.002-0.039
		v-46.113c0-0.013,0.002-0.026,0.002-0.039s-0.002-0.026-0.002-0.039v-28.255c5.643,4.136,11.833,7.531,18.44,10.054l1.702,119.077
		c0.036,2.557,1.373,4.919,3.546,6.267c1.026,0.636,10.4,6.219,23.304,6.219c12.904,0,22.278-5.583,23.305-6.219
		c2.173-1.348,3.51-3.71,3.546-6.267l1.702-119.077c6.607-2.522,12.796-5.918,18.44-10.054v28.255c0,0.013-0.002,0.026-0.002,0.039
		s0.002,0.026,0.002,0.039v46.113c0,0.013-0.002,0.026-0.002,0.039s0.002,0.026,0.002,0.039v46.113c0,0.013-0.002,0.026-0.002,0.039
		s0.002,0.026,0.002,0.039v46.123c0,0.013-0.002,0.026-0.002,0.039s0.002,0.026,0.002,0.039V457.5c0,4.142,3.357,7.5,7.5,7.5
		c34.152,0,63.563-20.625,76.474-50.066c0.199-0.36,0.364-0.741,0.503-1.134c4.18-9.933,6.495-20.836,6.495-32.271v-56.917
		c0-41.361,27.457-78.714,66.781-90.876c0.859-0.251,1.651-0.654,2.353-1.174c0.012-0.009,0.024-0.018,0.036-0.027
		c0.215-0.162,0.421-0.334,0.618-0.517c0.006-0.006,0.012-0.011,0.018-0.016c0.82-0.771,1.464-1.722,1.872-2.793
		c0.001-0.002,0.002-0.004,0.003-0.006c0.001-0.003,0.002-0.007,0.003-0.01c0.096-0.254,0.178-0.513,0.246-0.779
		c0.005-0.021,0.011-0.041,0.016-0.062c0.062-0.248,0.11-0.499,0.147-0.756c0.004-0.027,0.009-0.053,0.012-0.08
		c0.032-0.25,0.052-0.503,0.06-0.76c0.001-0.025,0.003-0.05,0.004-0.074c0.001-0.047,0.007-0.093,0.007-0.14
		C442.64,225.437,442.396,224.392,441.968,223.449z M328.39,65.038l37.377,61.612H321.76
		C324.479,103.929,326.814,81.18,328.39,65.038z M319.903,141.65h54.964l18.922,31.19h-78.299
		C317.003,163.336,318.489,152.674,319.903,141.65z M200.999,38.2l5.59,11.688l3.713,24.247c0.568,3.71,3.763,6.366,7.404,6.366
		c0.377,0,0.76-0.028,1.145-0.087c4.094-0.627,6.905-4.455,6.278-8.549l-3.881-25.346c-0.111-0.729-0.33-1.436-0.647-2.101
		l-9.964-20.831C211.008,16.087,214.49,15,232.5,15c18.011,0,21.492,1.087,21.863,8.587l-9.963,20.831
		c-0.318,0.665-0.536,1.372-0.647,2.101l-3.882,25.346c-0.628,4.094,2.184,7.922,6.277,8.549c4.093,0.629,7.923-2.183,8.549-6.278
		l3.714-24.247l5.59-11.688c23.808,2.302,42.208,6.664,51.009,9.042c-0.844,9.086-2.584,27.304-4.839,48.257H154.83
		c-2.255-20.953-3.995-39.171-4.839-48.257C158.793,44.864,177.191,40.503,200.999,38.2z M136.611,65.038
		c1.575,16.142,3.911,38.891,6.63,61.612H99.234L136.611,65.038z M90.134,141.65h54.964c1.414,11.024,2.9,21.686,4.414,31.19h-78.3
		L90.134,141.65z M170.508,449.592c-20.878-2.285-38.951-14.005-49.888-30.782h49.888V449.592z M170.508,403.81h-57.244
		c-2.412-6.989-3.727-14.484-3.727-22.282v-8.918h60.972V403.81z M170.508,357.61h-60.972v-31.19h60.972V357.61z M170.508,311.42
		h-61.751c-1.285-10.822-4.168-21.295-8.537-31.19h70.288V311.42z M170.508,265.23H92.157c-1.429-2.226-2.93-4.418-4.528-6.558
		c-7.136-9.554-15.826-17.873-25.559-24.632h55.101c4.142,0,7.5-3.358,7.5-7.5s-3.358-7.5-7.5-7.5H43.184l18.928-31.2h90.012
		c0.569,2.945,1.138,5.67,1.706,8.13c1.898,8.23,4.979,15.988,9.043,23.07H147.17c-4.142,0-7.5,3.358-7.5,7.5s3.358,7.5,7.5,7.5
		h23.338V265.23z M282.705,221.084c-0.364,0.343-0.694,0.719-0.983,1.128c-0.318,0.314-0.605,0.659-0.863,1.025
		c-5.629,6.28-12.42,11.404-20.103,15.082c-1.058-2.794-3.734-4.802-6.903-4.847c-0.037,0-0.073-0.001-0.109-0.001
		c-4.092,0-7.438,3.288-7.497,7.393l-0.002,0.107l-0.115,8.046c0,0.012,0,0.025-0.001,0.038l-1.71,119.668
		c-2.776,1.092-7.004,2.329-11.919,2.329c-4.889,0-9.131-1.244-11.918-2.339l-1.71-119.62c0-0.041-0.001-0.082-0.002-0.123
		l-0.114-7.999l-0.002-0.107c-0.059-4.105-3.404-7.393-7.497-7.393c-0.037,0-0.073,0-0.109,0.001
		c-3.169,0.045-5.846,2.052-6.904,4.847c-7.683-3.677-14.474-8.801-20.102-15.081c-0.25-0.356-0.526-0.692-0.833-0.999
		c-0.305-0.434-0.656-0.832-1.044-1.192c-6.553-7.993-11.329-17.653-13.819-28.449c-2.585-11.207-5.251-28.453-7.74-47.347
		l37.525,6.428l-3.76,5.792c-2.255,3.474-1.268,8.119,2.207,10.374c1.261,0.819,2.677,1.21,4.077,1.21
		c2.455,0,4.861-1.205,6.297-3.417l9.961-15.345c1.374-2.116,1.592-4.781,0.58-7.091c-1.012-2.311-3.118-3.958-5.604-4.384
		l-53.253-9.123c-0.781-6.4-1.534-12.85-2.252-19.196h152.032c-0.718,6.346-1.472,12.796-2.252,19.196l-53.254,9.123
		c-2.486,0.426-4.592,2.073-5.604,4.384s-0.794,4.976,0.579,7.092l9.962,15.345c1.437,2.213,3.843,3.417,6.298,3.417
		c1.399,0,2.815-0.392,4.077-1.21c3.474-2.255,4.462-6.9,2.207-10.375l-3.761-5.792l37.526-6.428
		c-2.489,18.894-5.155,36.139-7.74,47.346C294.06,203.41,289.274,213.083,282.705,221.084z M294.492,449.592V418.81h49.888
		C333.443,435.587,315.371,447.306,294.492,449.592z M355.464,357.61h-8.474c-4.143,0-7.5,3.358-7.5,7.5v0
		c0,4.142,3.357,7.5,7.5,7.5h8.474v8.918c0,7.798-1.315,15.293-3.728,22.282h-57.244v-31.2h22.498c4.143,0,7.5-3.358,7.5-7.5v0
		c0-4.142-3.357-7.5-7.5-7.5h-22.498v-31.19h60.972V357.61z M356.243,311.42h-61.751v-31.19h70.288
		C360.411,290.125,357.528,300.598,356.243,311.42z M377.371,258.672c-1.598,2.14-3.099,4.331-4.528,6.558h-78.351v-31.19h108.439
		C393.198,240.799,384.508,249.118,377.371,258.672z M302.127,219.04c4.065-7.082,7.145-14.84,9.044-23.07
		c0.567-2.46,1.137-5.185,1.706-8.13h90.011l18.928,31.2H302.127z"/>
</g>
<g>
</g>
<g>
</g>
<g>
</g>
<g>
</g>
<g>
</g>
<g>
</g>
<g>
</g>
<g>
</g>
<g>
</g>
<g>
</g>
<g>
</g>
<g>
</g>
<g>
</g>
<g>
</g>
<g>
</g>
</svg>